<svg xmlns="http://www.w3.org/2000/svg" xmlns:xlink="http://www.w3.org/1999/xlink" viewBox="0 0 1124 720.43"><defs><style>.cls-1{fill:#131131;}.cls-2{fill:#e6e7e8;}.cls-3{fill:url(#linear-gradient);}.cls-4{fill:url(#linear-gradient-2);}.cls-5{fill:url(#linear-gradient-3);}.cls-6{fill:url(#linear-gradient-4);}.cls-7{fill:url(#linear-gradient-5);}.cls-8{fill:url(#linear-gradient-6);}.cls-9{fill:url(#linear-gradient-7);}.cls-10{fill:url(#linear-gradient-8);}.cls-11{fill:url(#linear-gradient-9);}.cls-12{fill:url(#linear-gradient-10);}.cls-13{fill:url(#linear-gradient-11);}.cls-14{fill:url(#linear-gradient-12);}.cls-15{fill:url(#linear-gradient-13);}.cls-16{fill:url(#linear-gradient-14);}.cls-17{fill:url(#linear-gradient-15);}</style><linearGradient id="linear-gradient" x1="1633.28" y1="1614.79" x2="1614.09" y2="1689.92" gradientTransform="matrix(-0.51, -0.86, 0.86, -0.51, -322.39, 2653.33)" gradientUnits="userSpaceOnUse"><stop offset="0" stop-color="#122162"/><stop offset="0.53" stop-color="#08c293"/><stop offset="0.58" stop-color="#09ba91"/><stop offset="0.67" stop-color="#0aa38a"/><stop offset="0.78" stop-color="#0c7f7f"/><stop offset="0.9" stop-color="#0f4c6f"/><stop offset="1" stop-color="#122162"/></linearGradient><linearGradient id="linear-gradient-2" x1="1547.15" y1="1737.08" x2="1621.47" y2="1703.58" gradientTransform="matrix(-0.51, -0.86, 0.86, -0.51, -322.39, 2653.33)" gradientUnits="userSpaceOnUse"><stop offset="0" stop-color="#122162"/><stop offset="0.53" stop-color="#08c293"/><stop offset="0.58" stop-color="#09ba91"/><stop offset="0.67" stop-color="#0aa38a"/><stop offset="0.78" stop-color="#0c7f7f"/><stop offset="0.9" stop-color="#0f4c6f"/><stop offset="1" stop-color="#122162"/></linearGradient><linearGradient id="linear-gradient-3" x1="1532.25" y1="1630.64" x2="1584.73" y2="1682.03" xlink:href="#linear-gradient"/><linearGradient id="linear-gradient-4" x1="1640.09" y1="1655.12" x2="1610.6" y2="1665.31" gradientTransform="matrix(-0.5, -0.86, 0.86, -0.5, -332.49, 2645.76)" gradientUnits="userSpaceOnUse"><stop offset="0" stop-color="#069470"/><stop offset="1" stop-color="#122162"/></linearGradient><linearGradient id="linear-gradient-5" x1="1317.6" y1="2196.48" x2="1288.11" y2="2206.67" gradientTransform="matrix(0.53, -0.85, -0.85, -0.53, 1528.53, 2671.29)" xlink:href="#linear-gradient-4"/><linearGradient id="linear-gradient-6" x1="306.55" y1="230.77" x2="287.36" y2="305.91" gradientTransform="matrix(1, -0.01, 0.01, 1, -21.25, 25.04)" gradientUnits="userSpaceOnUse"><stop offset="0" stop-color="#131131"/><stop offset="0.53" stop-color="#74a51e"/><stop offset="0.59" stop-color="#6f9d1f"/><stop offset="0.68" stop-color="#608622"/><stop offset="0.8" stop-color="#486227"/><stop offset="0.93" stop-color="#272f2d"/><stop offset="1" stop-color="#131131"/></linearGradient><linearGradient id="linear-gradient-7" x1="220.41" y1="353.07" x2="294.74" y2="319.57" xlink:href="#linear-gradient-6"/><linearGradient id="linear-gradient-8" x1="205.52" y1="246.63" x2="258" y2="298.02" xlink:href="#linear-gradient-6"/><linearGradient id="linear-gradient-9" x1="302.3" y1="281.24" x2="272.81" y2="291.44" gradientTransform="translate(-9.45 20.44) rotate(-0.18)" gradientUnits="userSpaceOnUse"><stop offset="0" stop-color="#587d17"/><stop offset="1" stop-color="#131131"/></linearGradient><linearGradient id="linear-gradient-10" x1="-526.03" y1="1664.99" x2="-555.53" y2="1675.19" gradientTransform="matrix(0.47, 0.88, 0.88, -0.47, -961.74, 1620.26)" gradientUnits="userSpaceOnUse"><stop offset="0" stop-color="#587d17"/><stop offset="1" stop-color="#131131"/></linearGradient><linearGradient id="linear-gradient-11" x1="-229.86" y1="2072.5" x2="-249.05" y2="2147.64" gradientTransform="translate(2104.47 1601.22) rotate(119.37)" gradientUnits="userSpaceOnUse"><stop offset="0" stop-color="#131131"/><stop offset="0.53" stop-color="#2aaae1"/><stop offset="0.58" stop-color="#29a3d9"/><stop offset="0.66" stop-color="#268fc2"/><stop offset="0.76" stop-color="#216f9e"/><stop offset="0.88" stop-color="#1b436b"/><stop offset="1" stop-color="#131131"/></linearGradient><linearGradient id="linear-gradient-12" x1="-316" y1="2194.8" x2="-241.68" y2="2161.3" xlink:href="#linear-gradient-11"/><linearGradient id="linear-gradient-13" x1="-330.89" y1="2088.36" x2="-278.41" y2="2139.75" xlink:href="#linear-gradient-11"/><linearGradient id="linear-gradient-14" x1="-219.06" y1="2127.16" x2="-248.55" y2="2137.36" gradientTransform="matrix(-0.5, 0.87, -0.87, -0.5, 2102.78, 1613.39)" gradientUnits="userSpaceOnUse"><stop offset="0" stop-color="#3a6ec1"/><stop offset="1" stop-color="#131131"/></linearGradient><linearGradient id="linear-gradient-15" x1="855.63" y1="334.54" x2="826.14" y2="344.73" gradientTransform="matrix(-1, -0.03, -0.03, 1, 1193.28, -11.19)" xlink:href="#linear-gradient-14"/></defs><g id="Layer_2" data-name="Layer 2"><rect class="cls-1" width="1124" height="720.43"/></g><g id="Layer_1" data-name="Layer 1"><rect class="cls-2" x="442.87" y="251.48" width="2.54" height="217.76"/><g id="_Radial_Repeat_" data-name="&lt;Radial Repeat&gt;"><g id="_Radial_Repeat_2" data-name="&lt;Radial Repeat&gt;"><path class="cls-3" d="M241.91,408.71a55.53,55.53,0,0,0,12.32,2.57l-.11.1a7.64,7.64,0,0,0-.3,11,7.54,7.54,0,0,0,5.77,2.24,7.75,7.75,0,0,0,3.53-1.05,8.93,8.93,0,0,0,1.52-1.17l40.06-40.27c0,7.44.06,15.21,0,22.9-.06,14.66-13,28.62-27.66,29.91-1.85.17-3.73.19-5.72.19h-1.83c-7.65,0-15.29,0-23.09.05H242Z" transform="translate(0 0.36)"/><path class="cls-4" d="M383.08,434.88h-5.43c-8.6,0-17.15.05-25.7.05a38.9,38.9,0,0,1-7.53-.8,31.35,31.35,0,0,1-24.12-30.42c0-6.65-.23-15.08-.24-21.75l39.3,40.51a8.1,8.1,0,0,0,11.41.2h0a8.08,8.08,0,0,0,0-11.72l-.16-.15A47.46,47.46,0,0,0,383,408.43Z" transform="translate(0 0.36)"/><path class="cls-5" d="M302.4,464.4l-1.31-1.32a14.43,14.43,0,0,1,.81-21c.28-.25.56-.5.83-.76a14.48,14.48,0,0,1,19.91,0l.63.58a14.46,14.46,0,0,1,.87,21l-1.5,1.5A14.3,14.3,0,0,1,302.4,464.4Z" transform="translate(0 0.36)"/></g><path class="cls-6" d="M305,382.08s-4.93,44.33-45.44,42.13a7.71,7.71,0,0,0,3.53-1,8.52,8.52,0,0,0,1.54-1.16Z" transform="translate(0 0.36)"/><path class="cls-7" d="M320.41,382s3.77,44.45,44.33,43.31a7.63,7.63,0,0,1-3.51-1.11,9,9,0,0,1-1.51-1.2Z" transform="translate(0 0.36)"/></g><g id="_Radial_Repeat_3" data-name="&lt;Radial Repeat&gt;"><g id="_Radial_Repeat_4" data-name="&lt;Radial Repeat&gt;"><path class="cls-8" d="M298.59,266.63A56.52,56.52,0,0,0,290.2,276l0-.15a7.64,7.64,0,0,0-9.39-5.75A7.5,7.5,0,0,0,276,274a7.65,7.65,0,0,0-.85,3.58,8.26,8.26,0,0,0,.25,1.9l14.85,54.83c-6.46-3.7-13.21-7.55-19.85-11.43-12.67-7.37-18.3-25.56-12.07-38.9.77-1.69,1.7-3.33,2.69-5.05.11-.15.18-.33.28-.49l.62-1.1c3.8-6.64,7.63-13.26,11.51-20l2.22-3.87Z" transform="translate(0 0.36)"/><path class="cls-9" d="M205.34,375.81l2.71-4.71q6.4-11.19,12.81-22.28a38.72,38.72,0,0,1,4.45-6.12,31.35,31.35,0,0,1,38.4-5.68c5.77,3.3,13.18,7.34,19,10.67l-54.73,13.78a8.09,8.09,0,0,0-5.88,9.77h0a8.08,8.08,0,0,0,10.17,5.82l.22-.06a47.47,47.47,0,0,0-4.17,12Z" transform="translate(0 0.36)"/><path class="cls-10" d="M220.12,291.18l1.79-.48a14.42,14.42,0,0,1,17.78,11.21c.08.36.16.73.25,1.1A14.48,14.48,0,0,1,230,320.26l-.81.26a14.47,14.47,0,0,1-18.64-9.76l-.55-2A14.31,14.31,0,0,1,220.12,291.18Z" transform="translate(0 0.36)"/></g><path class="cls-11" d="M290.09,334.63s-35.93-26.44-13.77-60.42a7.61,7.61,0,0,0-.88,3.57,8.4,8.4,0,0,0,.24,1.91Z" transform="translate(0 0.36)"/><path class="cls-12" d="M282.44,348s-40.38-19-59.66,16.73a7.6,7.6,0,0,1,2.71-2.48,8.31,8.31,0,0,1,1.8-.7Z" transform="translate(0 0.36)"/></g><g id="_Radial_Repeat_5" data-name="&lt;Radial Repeat&gt;"><g id="_Radial_Repeat_6" data-name="&lt;Radial Repeat&gt;"><path class="cls-13" d="M393.3,386.76a56.29,56.29,0,0,0-3.94-12l.14.06a7.64,7.64,0,0,0,9.68-5.26,7.64,7.64,0,0,0-3.61-8.64,8.46,8.46,0,0,0-1.78-.74l-54.9-14.55c6.43-3.75,13.14-7.66,19.82-11.48,12.72-7.28,31.28-3.06,39.72,9,1.08,1.51,2,3.14,3,4.86.08.17.2.32.28.48l.65,1.09c3.85,6.62,7.66,13.24,11.59,20l2.24,3.86Z" transform="translate(0 0.36)"/><path class="cls-14" d="M345.37,251.42l2.73,4.7c4.32,7.43,8.61,14.82,12.89,22.23a38.89,38.89,0,0,1,3.07,6.92,31.34,31.34,0,0,1-14.28,36.09c-5.75,3.35-12.95,7.74-18.72,11.09l15.43-54.29a8.09,8.09,0,0,0-5.52-10h0a8.09,8.09,0,0,0-10.13,5.9l0,.22a47.67,47.67,0,0,0-8.3-9.61Z" transform="translate(0 0.36)"/><path class="cls-15" d="M411.28,306.53l-.48,1.8a14.45,14.45,0,0,1-18.6,9.79l-1.08-.34a14.48,14.48,0,0,1-10-17.22c.06-.28.13-.56.19-.84a14.46,14.46,0,0,1,17.76-11.26l2.05.55A14.31,14.31,0,0,1,411.28,306.53Z" transform="translate(0 0.36)"/></g><path class="cls-16" d="M338.66,345.4s40.86-17.89,59.21,18.29a7.61,7.61,0,0,0-2.65-2.55,8.72,8.72,0,0,0-1.77-.75Z" transform="translate(0 0.36)"/><path class="cls-17" d="M330.94,332.11s36.61-25.49,15.34-60a7.43,7.43,0,0,1,.79,3.59,7.81,7.81,0,0,1-.29,1.9Z" transform="translate(0 0.36)"/></g><path class="cls-2" d="M461.88,309.1a4.73,4.73,0,0,0,3.29-1.05,3.68,3.68,0,0,0,1.11-2.33c.09-.9.14-2.47.14-4.71V272.6c0-1.84.06-3.42.19-4.73l-4.73.26v-2.89c6.14-.09,11-.14,14.67-.14q9.79,0,14.83,3.42t5,10.06a14.44,14.44,0,0,1-2,7.31,15,15,0,0,1-6.9,5.79q-4.9,2.29-13,2.3c-1,0-1.8,0-2.37-.07v9.54a49.84,49.84,0,0,1-.2,5.19l6.05-.32v2.95H461.88Zm21.41-19.17A11.5,11.5,0,0,0,490,279.11q0-5.91-3.62-8.68t-10-2.76a4.26,4.26,0,0,0-3.12.92,3.64,3.64,0,0,0-1,2.2c-.09.86-.13,2.42-.13,4.71v15.71a37.43,37.43,0,0,0,4.27.2A15.85,15.85,0,0,0,483.29,289.93Z" transform="translate(0 0.36)"/><path class="cls-2" d="M495.49,309.1a4.25,4.25,0,0,0,2.63-.75,5.87,5.87,0,0,0,1.61-2,29.87,29.87,0,0,0,1.48-3.65l.66-1.84L515.42,264H517l14.67,37.42a29.31,29.31,0,0,1,1.25,3.84,12.19,12.19,0,0,1,.46,3.39l4.47-.26v2.89H522.78V309.1q3.88-.06,3.88-3.15a9.44,9.44,0,0,0-.66-3.09l-2.3-6.19-17.1.4c-.66,1.79-1.42,4.14-2.3,7-.44,1.45-1,3-1.64,4.54l5.13-.26v2.89h-12.3Zm27.29-14.86-4.67-12.56-3-8.09H515L512.26,281l-3.55,10-1.12,3.22Z" transform="translate(0 0.36)"/><path class="cls-2" d="M540.67,309.1a4.71,4.71,0,0,0,3.29-1.05,3.75,3.75,0,0,0,1.12-2.33c.09-.9.13-2.47.13-4.71V272.6c0-1.84.07-3.42.2-4.73l-4.74.26v-2.89h14.8v2.16a4.82,4.82,0,0,0-3.29,1.05,3.77,3.77,0,0,0-1.12,2.34c-.08.9-.13,2.47-.13,4.71v28.21a49.67,49.67,0,0,1-.19,5.13l12.29-.2a7.82,7.82,0,0,0,6.32-2.66c1.4-1.73,2.1-4.51,2.1-8.32h2.24l-.4,13.61H540.67Z" transform="translate(0 0.36)"/><path class="cls-2" d="M578.69,309.1a4.73,4.73,0,0,0,3.29-1.05,3.73,3.73,0,0,0,1.11-2.33c.09-.9.13-2.47.13-4.71V272.6c0-1.84.07-3.42.2-4.73l-4.73.26v-2.89h14.8v2.16a4.79,4.79,0,0,0-3.29,1.05,3.77,3.77,0,0,0-1.12,2.34c-.09.9-.13,2.47-.13,4.71v27.95a49.84,49.84,0,0,1-.2,5.19l4.74-.26v2.89h-14.8Z" transform="translate(0 0.36)"/><path class="cls-2" d="M472.07,366.53a19.71,19.71,0,0,1-7.89-8,25.28,25.28,0,0,1-2.83-12.3,29.14,29.14,0,0,1,2.6-12.17,22.34,22.34,0,0,1,7.79-9.3,21.48,21.48,0,0,1,12.5-3.59,28.19,28.19,0,0,1,7.2,1,23.19,23.19,0,0,1,6.42,2.66l-.27-3.16h3.62V336.7h-2.37a13.33,13.33,0,0,0-4.37-9.46,14.28,14.28,0,0,0-9.77-3.43,14.52,14.52,0,0,0-8.52,2.7,18.74,18.74,0,0,0-6.11,7.46,24.68,24.68,0,0,0-2.27,10.76,26.18,26.18,0,0,0,2.23,11,18.28,18.28,0,0,0,6.25,7.63,15.75,15.75,0,0,0,9.14,2.76,21.79,21.79,0,0,0,5.82-.82,18.15,18.15,0,0,0,5.43-2.47v-14.4l-4.6.26v-2.89h14.86V348q-3.15,0-3.95,2.4a17.51,17.51,0,0,0-.78,5.42v10.07h-1.78a20.42,20.42,0,0,0-7.1,1.71,23.79,23.79,0,0,1-4.67,1.25,30.37,30.37,0,0,1-4.94.46A23.64,23.64,0,0,1,472.07,366.53Z" transform="translate(0 0.36)"/><path class="cls-2" d="M511.93,366.11a4.82,4.82,0,0,0,3.29-1.05,3.77,3.77,0,0,0,1.12-2.34c.08-.9.13-2.47.13-4.71V329.6a45.76,45.76,0,0,1,.2-4.73l-4.74.26v-2.89q6.84-.14,10.33-.13c2.1,0,3.68,0,4.73.06q9.27.13,13.58,3.12a9.87,9.87,0,0,1,4.31,8.65,12.75,12.75,0,0,1-2.7,8.16q-2.76,3.61-9.6,5a11.19,11.19,0,0,1,2,2q.93,1.2,2.5,3.69l4.47,7c1,1.53,1.77,2.71,2.4,3.51a7.56,7.56,0,0,0,2.31,2,6.71,6.71,0,0,0,3.32.76v2.16h-8.29a19.34,19.34,0,0,1-3-3.12c-.81-1.07-1.77-2.46-2.86-4.17l-4.41-7-.85-1.38c-.71-1.19-1.32-2.15-1.85-2.9a12.16,12.16,0,0,0-1.71-2c-.39,0-1,.06-1.84.06-1.18,0-2.06,0-2.63-.06v12.76a49.84,49.84,0,0,1-.2,5.19l4.74-.26v2.89h-14.8Zm26.57-31.44q0-5-2.89-7.5t-8.88-2.5a4.77,4.77,0,0,0-3.29.92,3.43,3.43,0,0,0-1.12,2.23c-.09.88-.13,2.44-.13,4.68v12.62c1.32.09,2.28.13,2.89.13Q538.5,345.25,538.5,334.67Z" transform="translate(0 0.36)"/><path class="cls-2" d="M562.9,365.84a21.12,21.12,0,0,1-7.76-9,27.64,27.64,0,0,1-2.5-11.61,26.45,26.45,0,0,1,2.6-11.37,22.66,22.66,0,0,1,7.76-9.11,21.42,21.42,0,0,1,12.53-3.59,22.12,22.12,0,0,1,20.78,12.7A26.07,26.07,0,0,1,599,345.25a26.56,26.56,0,0,1-2.6,11.35,22.61,22.61,0,0,1-7.76,9.14,21.45,21.45,0,0,1-12.53,3.59Q568.16,369.33,562.9,365.84ZM585,363.71a18.43,18.43,0,0,0,5.52-7.53,25.48,25.48,0,0,0,1.88-9.68,29.47,29.47,0,0,0-2-10.81,21,21,0,0,0-5.92-8.55,13.51,13.51,0,0,0-9.08-3.33,13.74,13.74,0,0,0-8.81,2.93,18,18,0,0,0-5.56,7.6,25.87,25.87,0,0,0-1.87,9.73A30.3,30.3,0,0,0,561,354.5a21.22,21.22,0,0,0,5.79,8.68,14.61,14.61,0,0,0,18.19.53Z" transform="translate(0 0.36)"/><path class="cls-2" d="M615.55,366.86a13.63,13.63,0,0,1-5.78-7.56A42.33,42.33,0,0,1,608,345.85V332.5q0-4.22.26-7.63l-4.73.19v-2.82h14.73v2.17c-1.93,0-3.15.5-3.68,1.51a7.85,7.85,0,0,0-.79,3.68v16.58a42.21,42.21,0,0,0,1,9.9,13,13,0,0,0,4,6.83q3,2.67,8.58,2.67,6.84,0,10.17-4.7t3.45-12.8l.2-18.48c0-1.84.06-3.42.19-4.73l-4.67.26v-2.89H649v2.17a4.83,4.83,0,0,0-3.36,1,3.73,3.73,0,0,0-1.11,2.33c-.09.9-.14,2.47-.14,4.71l-.13,15.25q-.06,9.54-4.24,15.56t-13.45,6Q619.59,369.33,615.55,366.86Z" transform="translate(0 0.36)"/><path class="cls-2" d="M654.59,366.11a4.82,4.82,0,0,0,3.29-1.05,3.71,3.71,0,0,0,1.11-2.34c.09-.9.14-2.47.14-4.71V329.6c0-1.84.06-3.42.19-4.73l-4.73.26v-2.89q9.21-.14,14.67-.13,9.79,0,14.83,3.41t5,10.07a14.43,14.43,0,0,1-2,7.3,15,15,0,0,1-6.9,5.79q-4.9,2.29-13,2.3c-1,0-1.8,0-2.37-.07v9.54a49.84,49.84,0,0,1-.2,5.19l6.05-.32v2.95H654.59ZM676,346.93a11.5,11.5,0,0,0,6.74-10.82q0-5.91-3.62-8.68t-10-2.76a4.26,4.26,0,0,0-3.12.92,3.64,3.64,0,0,0-1,2.2c-.09.86-.13,2.42-.13,4.71v15.71a35.35,35.35,0,0,0,4.27.2A15.85,15.85,0,0,0,676,346.93Z" transform="translate(0 0.36)"/><path class="cls-2" d="M471.05,425.48a17.94,17.94,0,0,1-5.49-2.5l.33,2.83h-3.42l-.39-14h2.56q.33,5.65,3.88,8.71a13.31,13.31,0,0,0,9,3.06,10.42,10.42,0,0,0,6.74-2.2,7.33,7.33,0,0,0,2.73-6,7.72,7.72,0,0,0-1.54-4.84,13.43,13.43,0,0,0-3.82-3.35,67.67,67.67,0,0,0-6.15-3.13q-4.41-2.1-7-3.68a14.82,14.82,0,0,1-4.44-4.18,10.74,10.74,0,0,1-1.84-6.41,12.44,12.44,0,0,1,1.21-5.26,10.54,10.54,0,0,1,4.21-4.47,15,15,0,0,1,7.93-1.84,24.44,24.44,0,0,1,5.95.75,15.77,15.77,0,0,1,5.49,2.6l-.26-2.83h3.35v14.47h-2.36a14.78,14.78,0,0,0-3.33-8.78,10.31,10.31,0,0,0-8.38-3.58,8.42,8.42,0,0,0-6.18,2.2,7.4,7.4,0,0,0-2.24,5.49,7.06,7.06,0,0,0,1.51,4.54,12.64,12.64,0,0,0,3.69,3.16q2.16,1.25,6.11,3.09a76.55,76.55,0,0,1,7.21,3.68,15.7,15.7,0,0,1,4.63,4.31,11,11,0,0,1,1.91,6.54,11.82,11.82,0,0,1-1.81,6.52,12,12,0,0,1-5.29,4.41,20,20,0,0,1-8.29,1.57A23.53,23.53,0,0,1,471.05,425.48Z" transform="translate(0 0.36)"/><path class="cls-2" d="M499.17,423.11a4.77,4.77,0,0,0,3.29-1.05,3.75,3.75,0,0,0,1.12-2.34c.08-.9.13-2.46.13-4.7V386.61a46,46,0,0,1,.2-4.74l-4.74.26v-2.89h31.64l.32,11.51H529c0-3.6-.77-6.05-2.33-7.37a9.39,9.39,0,0,0-6.54-1.84l-5.66.14a5.83,5.83,0,0,0-3.42.88,3.65,3.65,0,0,0-1.32,2.3,30,30,0,0,0-.26,4.64V400l12.36.07-.46-5.66h2.9v13.82h-2.17a9.23,9.23,0,0,0-.59-3.72,3.1,3.1,0,0,0-1.81-1.71,10.5,10.5,0,0,0-3.39-.43l-2,.07-4.8.19v15.06a48.79,48.79,0,0,1-.2,5.13l12.56-.19q4.61-.06,7-2.34c1.62-1.51,2.44-4.13,2.44-7.86h2.23l-.39,12.83H499.17Z" transform="translate(0 0.36)"/><path class="cls-2" d="M540.08,423.11a4.77,4.77,0,0,0,3.29-1.05,3.75,3.75,0,0,0,1.12-2.34c.08-.9.13-2.46.13-4.7V386.61a46,46,0,0,1,.2-4.74l-4.74.26v-2.89q6.84-.14,10.33-.13c2.1,0,3.68,0,4.73.07q9.27.12,13.58,3.12A9.87,9.87,0,0,1,573,391a12.74,12.74,0,0,1-2.69,8.15q-2.77,3.61-9.61,5a10.94,10.94,0,0,1,2,2q.93,1.19,2.5,3.68l4.47,7c1,1.54,1.77,2.71,2.4,3.52a7.67,7.67,0,0,0,2.31,2,6.6,6.6,0,0,0,3.32.76v2.17h-8.29a20.2,20.2,0,0,1-3-3.12c-.81-1.08-1.77-2.47-2.86-4.18l-4.41-7-.85-1.38c-.71-1.18-1.32-2.15-1.85-2.89a11.83,11.83,0,0,0-1.71-2,16.42,16.42,0,0,1-1.84.07c-1.18,0-2.06,0-2.63-.07v12.76a49.93,49.93,0,0,1-.2,5.2l4.74-.26v2.89h-14.8Zm26.57-31.44q0-5-2.89-7.49t-8.88-2.5a4.78,4.78,0,0,0-3.29.91,3.46,3.46,0,0,0-1.12,2.24c-.09.88-.13,2.43-.13,4.67v12.63c1.32.09,2.28.13,2.89.13Q566.66,402.26,566.65,391.67Z" transform="translate(0 0.36)"/><path class="cls-2" d="M583.69,391a37.44,37.44,0,0,1-2.83-8.95l-3.68.13v-2.89h15.25v2.17l-.06.07a5.61,5.61,0,0,0-3.19.95,2.91,2.91,0,0,0-1,2.4,10.34,10.34,0,0,0,.92,3.75l1.71,4.21q.66,1.63,2,5t2.54,6.11l1.71,4q2.57,5.85,3.62,8.68h.13l2.43-7,.86-2.37L609.86,391l1.52-4.21a51.35,51.35,0,0,1,1.9-4.87l-5.06.26v-2.89h13.35v2.17a6.91,6.91,0,0,0-4.44,1.52,11.86,11.86,0,0,0-2.79,4.93l-13.88,38.08h-1.84Z" transform="translate(0 0.36)"/><path class="cls-2" d="M624,423.11a4.73,4.73,0,0,0,3.28-1.05,3.75,3.75,0,0,0,1.12-2.34c.09-.9.13-2.46.13-4.7V386.61c0-1.85.07-3.42.2-4.74l-4.73.26v-2.89H638.8v2.17a4.77,4.77,0,0,0-3.29,1,3.73,3.73,0,0,0-1.11,2.34c-.09.9-.14,2.46-.14,4.7v27.95a50.58,50.58,0,0,1-.19,5.2l4.73-.26v2.89H624Z" transform="translate(0 0.36)"/><path class="cls-2" d="M655.67,423.24a21.48,21.48,0,0,1-7.95-8.42A24.6,24.6,0,0,1,644.85,403a28.66,28.66,0,0,1,2.6-12.1,22,22,0,0,1,7.76-9.17,21.58,21.58,0,0,1,12.47-3.52,23.56,23.56,0,0,1,13.28,4l-.33-3.55h3.56v15.26h-2.37a14.86,14.86,0,0,0-4.31-9.57,13.05,13.05,0,0,0-9.37-3.46,14.91,14.91,0,0,0-8.52,2.6,17.61,17.61,0,0,0-6.08,7.4A26.09,26.09,0,0,0,651.3,402a23.93,23.93,0,0,0,2.37,10.81,18.58,18.58,0,0,0,6.38,7.44,15.66,15.66,0,0,0,8.88,2.66,19.2,19.2,0,0,0,8.48-2,17.62,17.62,0,0,0,6.71-5.59l1.71,1.38a21.25,21.25,0,0,1-8.75,7.46,24.53,24.53,0,0,1-9.86,2.14A21.85,21.85,0,0,1,655.67,423.24Z" transform="translate(0 0.36)"/><path class="cls-2" d="M691.42,423.11a4.77,4.77,0,0,0,3.29-1.05,3.75,3.75,0,0,0,1.12-2.34c.08-.9.13-2.46.13-4.7V386.61c0-1.85.07-3.42.2-4.74l-4.74.26v-2.89h31.64l.32,11.51h-2.17c0-3.6-.77-6.05-2.33-7.37a9.39,9.39,0,0,0-6.54-1.84l-5.66.14a5.83,5.83,0,0,0-3.42.88,3.65,3.65,0,0,0-1.32,2.3,30,30,0,0,0-.26,4.64V400l12.37.07-.46-5.66h2.89v13.82h-2.17a9.23,9.23,0,0,0-.59-3.72,3.1,3.1,0,0,0-1.81-1.71,10.46,10.46,0,0,0-3.39-.43l-2,.07-4.8.19v15.06a46.16,46.16,0,0,1-.2,5.13l12.57-.19q4.61-.06,7-2.34t2.44-7.86h2.23l-.39,12.83H691.42Z" transform="translate(0 0.36)"/><path class="cls-2" d="M741.51,425.48A17.89,17.89,0,0,1,736,423l.33,2.83h-3.42l-.39-14h2.56q.33,5.65,3.88,8.71a13.31,13.31,0,0,0,9,3.06,10.47,10.47,0,0,0,6.75-2.2,7.36,7.36,0,0,0,2.73-6,7.72,7.72,0,0,0-1.55-4.84,13.43,13.43,0,0,0-3.82-3.35,67.67,67.67,0,0,0-6.15-3.13c-2.93-1.4-5.27-2.63-7-3.68a14.82,14.82,0,0,1-4.44-4.18,10.74,10.74,0,0,1-1.84-6.41,12.31,12.31,0,0,1,1.22-5.26,10.51,10.51,0,0,1,4.2-4.47,15,15,0,0,1,7.93-1.84,24.38,24.38,0,0,1,6,.75,15.9,15.9,0,0,1,5.5,2.6l-.27-2.83h3.35v14.47h-2.36a14.83,14.83,0,0,0-3.32-8.78,10.33,10.33,0,0,0-8.39-3.58,8.42,8.42,0,0,0-6.18,2.2,7.4,7.4,0,0,0-2.24,5.49,7.07,7.07,0,0,0,1.52,4.54,12.48,12.48,0,0,0,3.68,3.16q2.16,1.25,6.12,3.09a75,75,0,0,1,7.2,3.68,15.73,15.73,0,0,1,4.64,4.31,11,11,0,0,1,1.9,6.54,11.82,11.82,0,0,1-1.81,6.52,12,12,0,0,1-5.29,4.41,20,20,0,0,1-8.29,1.57A23.4,23.4,0,0,1,741.51,425.48Z" transform="translate(0 0.36)"/><path class="cls-2" d="M772,435.74a15.79,15.79,0,0,0,2.1-4.08,14.69,14.69,0,0,0,1-5.2,8.53,8.53,0,0,0-.06-1.18,4,4,0,0,1-1.65.4,2.84,2.84,0,0,1-2.17-.92,3.27,3.27,0,0,1-.86-2.31,3.7,3.7,0,0,1,1.06-2.79,3.49,3.49,0,0,1,2.56-1,4,4,0,0,1,3.42,1.67,7,7,0,0,1,1.25,4.31,19.34,19.34,0,0,1-1.41,6.51,16.82,16.82,0,0,1-3.45,5.92Z" transform="translate(0 0.36)"/><path class="cls-2" d="M803.56,423.11a4.77,4.77,0,0,0,3.29-1.05,3.68,3.68,0,0,0,1.11-2.34c.09-.9.14-2.46.14-4.7V386.61c0-1.85.06-3.42.19-4.74l-4.73.26v-2.89h14.8v2.17a4.76,4.76,0,0,0-3.29,1A3.75,3.75,0,0,0,814,384.8c-.09.9-.13,2.46-.13,4.7v28.21a48.79,48.79,0,0,1-.2,5.13l12.3-.19a7.8,7.8,0,0,0,6.32-2.67c1.4-1.72,2.1-4.5,2.1-8.32h2.24l-.4,13.62H803.56Z" transform="translate(0 0.36)"/><path class="cls-2" d="M841.57,423.11a4.74,4.74,0,0,0,3.29-1.05,3.75,3.75,0,0,0,1.12-2.34c.09-.9.13-2.46.13-4.7V386.61c0-1.85.07-3.42.2-4.74l-4.74.26v-2.89h14.8v2.17a4.73,4.73,0,0,0-3.28,1A3.7,3.7,0,0,0,852,384.8c-.09.9-.13,2.46-.13,4.7v28.21a48.79,48.79,0,0,1-.2,5.13l12.3-.19c2.8,0,4.91-.93,6.31-2.67s2.1-4.5,2.1-8.32h2.24l-.39,13.62H841.57Z" transform="translate(0 0.36)"/><path class="cls-2" d="M888.5,423.24a21.57,21.57,0,0,1-8-8.42A24.71,24.71,0,0,1,877.68,403a28.66,28.66,0,0,1,2.6-12.1,22,22,0,0,1,7.76-9.17,21.58,21.58,0,0,1,12.47-3.52,23.56,23.56,0,0,1,13.28,4l-.33-3.55H917v15.26h-2.36a14.86,14.86,0,0,0-4.31-9.57,13.05,13.05,0,0,0-9.37-3.46,14.89,14.89,0,0,0-8.52,2.6,17.7,17.7,0,0,0-6.09,7.4A26.09,26.09,0,0,0,884.13,402a23.93,23.93,0,0,0,2.37,10.81,18.51,18.51,0,0,0,6.38,7.44,15.66,15.66,0,0,0,8.88,2.66,19.2,19.2,0,0,0,8.48-2,17.69,17.69,0,0,0,6.71-5.59l1.71,1.38a21.25,21.25,0,0,1-8.75,7.46,24.58,24.58,0,0,1-9.87,2.14A21.84,21.84,0,0,1,888.5,423.24Z" transform="translate(0 0.36)"/><path class="cls-2" d="M461.35,451.35a1.62,1.62,0,0,0,1.1-.35,1.28,1.28,0,0,0,.38-.81c0-.31,0-.87,0-1.66v-9.25a14.65,14.65,0,0,1,.07-1.74l-1.59.09v-1c2.15,0,3.8,0,5,0a7.27,7.27,0,0,1,4,.91,3.06,3.06,0,0,1,1.4,2.76,3.13,3.13,0,0,1-.93,2.19,4.66,4.66,0,0,1-2.7,1.31v0a5.41,5.41,0,0,1,3.62,1.08,3.53,3.53,0,0,1,1.27,2.84,4,4,0,0,1-.67,2.3,4.37,4.37,0,0,1-1.85,1.5,6.71,6.71,0,0,1-2.68.51h-6.43Zm8.47-1a3.09,3.09,0,0,0,1-2.48,3.13,3.13,0,0,0-1-2.66,4.43,4.43,0,0,0-2.74-.8c-.81,0-1.57,0-2.27.07v5c0,.76,0,1.33-.07,1.71.28,0,.81.05,1.59.05h.75A4.13,4.13,0,0,0,469.82,450.37Zm-3.43-6.77a3.25,3.25,0,0,0,2.54-1,3.47,3.47,0,0,0,.79-2.3,2.54,2.54,0,0,0-1-2.29,4.05,4.05,0,0,0-2.32-.64,2.26,2.26,0,0,0-1.06.2,1,1,0,0,0-.47.63,5.34,5.34,0,0,0-.12,1.3v4.1Z" transform="translate(0 0.36)"/><path class="cls-2" d="M478.38,451.6a4.52,4.52,0,0,1-1.93-2.53,14.24,14.24,0,0,1-.59-4.51v-4.47c0-.93,0-1.79.09-2.55l-1.58.07v-.95h4.93v.73c-.65,0-1.06.17-1.24.5a2.74,2.74,0,0,0-.26,1.24v5.55a14,14,0,0,0,.34,3.31,4.41,4.41,0,0,0,1.35,2.29,4.18,4.18,0,0,0,2.87.89,3.89,3.89,0,0,0,3.4-1.57,7.55,7.55,0,0,0,1.16-4.29l.06-6.18a14.5,14.5,0,0,1,.07-1.59l-1.56.09v-1h4.09v.73a1.59,1.59,0,0,0-1.12.35,1.26,1.26,0,0,0-.38.78c0,.3,0,.83,0,1.57l0,5.11a9.11,9.11,0,0,1-1.42,5.21,5.12,5.12,0,0,1-4.51,2A7.1,7.1,0,0,1,478.38,451.6Z" transform="translate(0 0.36)"/><path class="cls-2" d="M491.45,451.35a1.6,1.6,0,0,0,1.1-.35,1.28,1.28,0,0,0,.38-.79c0-.3,0-.82,0-1.57v-9.51a14.5,14.5,0,0,1,.07-1.59l-1.59.09v-1h5v.73a1.55,1.55,0,0,0-1.1.35,1.26,1.26,0,0,0-.38.78c0,.3,0,.83,0,1.57v9.36c0,.78,0,1.36-.07,1.74l1.59-.08v1h-5Z" transform="translate(0 0.36)"/><path class="cls-2" d="M498.83,451.35a1.62,1.62,0,0,0,1.1-.35,1.27,1.27,0,0,0,.37-.79c0-.3.05-.82.05-1.57v-9.51q0-.93.06-1.59l-1.58.09v-1h4.95v.73a1.57,1.57,0,0,0-1.1.35,1.24,1.24,0,0,0-.37.78c0,.3-.05.83-.05,1.57v9.45c0,.76,0,1.34-.06,1.72l4.12-.07a2.61,2.61,0,0,0,2.11-.89,4.42,4.42,0,0,0,.7-2.78h.75l-.13,4.55H498.83Z" transform="translate(0 0.36)"/><path class="cls-2" d="M511.56,451.35a1.62,1.62,0,0,0,1.1-.35,1.27,1.27,0,0,0,.37-.79c0-.3,0-.82,0-1.57v-9.51c0-.62,0-1.15.07-1.59l-1.58.09v-1l5.19,0a10,10,0,0,1,6.56,1.94,7,7,0,0,1,2.42,5.81,7.86,7.86,0,0,1-1,3.83A7.13,7.13,0,0,1,521.9,451a9.24,9.24,0,0,1-4.55,1h-5.79Zm9-1a6,6,0,0,0,2.22-2.49,7.75,7.75,0,0,0,.8-3.54,6.94,6.94,0,0,0-1.76-5,7.1,7.1,0,0,0-5.31-1.82,1.62,1.62,0,0,0-1.1.31,1.18,1.18,0,0,0-.38.76c0,.3,0,.83,0,1.57v9.39a14.51,14.51,0,0,1-.07,1.71c.52,0,1.3.05,2.36.05A6,6,0,0,0,520.56,450.33Z" transform="translate(0 0.36)"/><path class="cls-2" d="M527.74,451.35a1.62,1.62,0,0,0,1.1-.35,1.22,1.22,0,0,0,.37-.79c0-.3,0-.82,0-1.57v-9.51q0-.93.06-1.59l-1.58.09v-1h5v.73a1.57,1.57,0,0,0-1.1.35,1.24,1.24,0,0,0-.37.78c0,.3-.05.83-.05,1.57v9.36q0,1.17-.06,1.74l1.58-.08v1h-5Z" transform="translate(0 0.36)"/><path class="cls-2" d="M537.6,439.59h0l.07,9.42c0,1,0,1.71,0,2.18l1.59-.08v1h-4v-.72a1.23,1.23,0,0,0,1.17-.51,2.49,2.49,0,0,0,.28-1.23l0-12.07-1.47.09v-1h2.62l9.38,12.55h0l0-10.08c0-.62,0-1.15.07-1.59l-1.59.09v-1h4.06v.73a1.77,1.77,0,0,0-1,.25,1,1,0,0,0-.41.63,4.9,4.9,0,0,0-.09,1.06v.76l0,12.34h-1.06Z" transform="translate(0 0.36)"/><path class="cls-2" d="M555.2,451.49a6.61,6.61,0,0,1-2.65-2.67,8.55,8.55,0,0,1-.94-4.12,9.77,9.77,0,0,1,.87-4.08,7.5,7.5,0,0,1,2.61-3.11,7.17,7.17,0,0,1,4.18-1.2,9.62,9.62,0,0,1,2.41.32,7.89,7.89,0,0,1,2.15.89l-.09-1.06H565v5h-.79a4.49,4.49,0,0,0-1.47-3.17,4.79,4.79,0,0,0-3.27-1.14,4.87,4.87,0,0,0-2.85.9,6.3,6.3,0,0,0-2.05,2.5,8.34,8.34,0,0,0-.76,3.6,8.77,8.77,0,0,0,.75,3.7,6,6,0,0,0,2.1,2.55,5.22,5.22,0,0,0,3.06.93,7,7,0,0,0,1.94-.28,6.15,6.15,0,0,0,1.82-.82v-4.82l-1.54.08v-1h5v.73a1.23,1.23,0,0,0-1.33.8,6.06,6.06,0,0,0-.26,1.82v3.37h-.59a6.87,6.87,0,0,0-2.38.57,7.25,7.25,0,0,1-1.57.42,10.18,10.18,0,0,1-1.65.16A8,8,0,0,1,555.2,451.49Z" transform="translate(0 0.36)"/><path class="cls-2" d="M577.7,451.35a1.38,1.38,0,0,0,1.22-.53,3,3,0,0,0,.28-1.5v-.68l0-11.16-2.27,0a2.13,2.13,0,0,0-2,.91,5.53,5.53,0,0,0-.58,2.9h-.82l.14-4.65h12.83l.14,4.65h-.84a8.41,8.41,0,0,0-.28-2.22,2.2,2.2,0,0,0-.85-1.23,3.11,3.11,0,0,0-1.73-.41h-1.88l0,12q0,1.17-.06,1.74l1.82-.08v1H577.7Z" transform="translate(0 0.36)"/><path class="cls-2" d="M588.42,451.35a1.6,1.6,0,0,0,1.1-.35,1.28,1.28,0,0,0,.38-.79c0-.3,0-.82,0-1.57v-9.51a14.5,14.5,0,0,1,.07-1.59l-1.59.09v-1c1.53,0,2.68,0,3.46,0s1.23,0,1.59,0a8.37,8.37,0,0,1,4.54,1,3.32,3.32,0,0,1,1.44,2.9,4.23,4.23,0,0,1-.9,2.73,5.1,5.1,0,0,1-3.21,1.67,3.71,3.71,0,0,1,.68.69c.21.26.48.67.84,1.23l1.49,2.36c.33.51.59.9.81,1.17a2.57,2.57,0,0,0,.77.66,2.22,2.22,0,0,0,1.11.26v.72h-2.77a6.15,6.15,0,0,1-1-1c-.27-.36-.59-.83-1-1.4l-1.48-2.36-.29-.46c-.23-.4-.44-.72-.61-1a4.67,4.67,0,0,0-.57-.66,5.09,5.09,0,0,1-.62,0c-.4,0-.69,0-.88,0v4.27a14.87,14.87,0,0,1-.07,1.74l1.59-.08v1h-5Zm8.9-10.53a3.13,3.13,0,0,0-1-2.51,4.52,4.52,0,0,0-3-.83,1.61,1.61,0,0,0-1.1.3,1.18,1.18,0,0,0-.38.75c0,.3,0,.82,0,1.56v4.23c.44,0,.76.05,1,.05C595.82,444.37,597.32,443.18,597.32,440.82Z" transform="translate(0 0.36)"/><path class="cls-2" d="M605.61,451.6a4.57,4.57,0,0,1-1.94-2.53,14.28,14.28,0,0,1-.58-4.51v-4.47c0-.93,0-1.79.08-2.55l-1.58.07v-.95h4.93v.73c-.64,0-1,.17-1.23.5a2.61,2.61,0,0,0-.27,1.24v5.55a13.94,13.94,0,0,0,.35,3.31,4.33,4.33,0,0,0,1.34,2.29,4.2,4.2,0,0,0,2.87.89,3.89,3.89,0,0,0,3.4-1.57,7.48,7.48,0,0,0,1.16-4.29l.07-6.18q0-.93.06-1.59l-1.56.09v-1h4.1v.73a1.62,1.62,0,0,0-1.13.35,1.24,1.24,0,0,0-.37.78c0,.3,0,.83,0,1.57l0,5.11a9.11,9.11,0,0,1-1.42,5.21,5.09,5.09,0,0,1-4.5,2A7.05,7.05,0,0,1,605.61,451.6Z" transform="translate(0 0.36)"/><path class="cls-2" d="M621.75,452.14a5.86,5.86,0,0,1-1.84-.84l.11.95h-1.15l-.13-4.69h.86a4,4,0,0,0,1.3,2.92,4.47,4.47,0,0,0,3,1,3.46,3.46,0,0,0,2.25-.74,2.44,2.44,0,0,0,.92-2,2.56,2.56,0,0,0-.52-1.62,4.46,4.46,0,0,0-1.28-1.12,22.26,22.26,0,0,0-2.06-1.05q-1.47-.7-2.34-1.23a5,5,0,0,1-1.49-1.4,3.64,3.64,0,0,1-.61-2.15,4.2,4.2,0,0,1,.4-1.76,3.66,3.66,0,0,1,1.41-1.5,5.06,5.06,0,0,1,2.66-.61,8,8,0,0,1,2,.25,5.28,5.28,0,0,1,1.84.87l-.09-.95h1.12v4.85h-.79a4.91,4.91,0,0,0-1.11-2.94,3.47,3.47,0,0,0-2.81-1.2,2.79,2.79,0,0,0-2.07.74,2.46,2.46,0,0,0-.75,1.83,2.39,2.39,0,0,0,.51,1.53,4.45,4.45,0,0,0,1.23,1c.49.28,1.17.62,2,1a22.77,22.77,0,0,1,2.41,1.23,5.19,5.19,0,0,1,1.55,1.44,3.66,3.66,0,0,1,.64,2.19,4,4,0,0,1-.6,2.18,4.1,4.1,0,0,1-1.78,1.48,6.68,6.68,0,0,1-2.77.53A7.9,7.9,0,0,1,621.75,452.14Z" transform="translate(0 0.36)"/><path class="cls-2" d="M634.53,451.35a1.38,1.38,0,0,0,1.22-.53,3,3,0,0,0,.28-1.5v-.68l0-11.16-2.27,0a2.13,2.13,0,0,0-1.95.91,5.53,5.53,0,0,0-.58,2.9h-.82l.14-4.65H643.4l.14,4.65h-.84a8.41,8.41,0,0,0-.28-2.22,2.2,2.2,0,0,0-.85-1.23,3.11,3.11,0,0,0-1.73-.41H638l0,12q0,1.17-.06,1.74l1.82-.08v1h-5.17Z" transform="translate(0 0.36)"/><path class="cls-2" d="M644.51,455.57a5.47,5.47,0,0,0,.7-1.36,5,5,0,0,0,.33-1.74,3.59,3.59,0,0,0,0-.4,1.29,1.29,0,0,1-.55.13,1,1,0,0,1-.73-.3,1.09,1.09,0,0,1-.28-.77,1.23,1.23,0,0,1,.35-.94,1.17,1.17,0,0,1,.86-.34,1.36,1.36,0,0,1,1.14.56,2.36,2.36,0,0,1,.42,1.44,6.55,6.55,0,0,1-.47,2.18,5.54,5.54,0,0,1-1.16,2Z" transform="translate(0 0.36)"/><path class="cls-2" d="M655.07,451.35a1.6,1.6,0,0,0,1.1-.35,1.28,1.28,0,0,0,.38-.79c0-.3,0-.82,0-1.57v-9.51a14.5,14.5,0,0,1,.07-1.59l-1.59.09v-1h10.59l.11,3.85h-.72a2.56,2.56,0,0,0-3-3.08l-1.9.05a1.93,1.93,0,0,0-1.14.29,1.16,1.16,0,0,0-.44.77,9.59,9.59,0,0,0-.09,1.55v3.53l4.14,0-.16-1.89h1v4.62h-.72a3.07,3.07,0,0,0-.2-1.24,1.05,1.05,0,0,0-.61-.58,3.71,3.71,0,0,0-1.13-.14l-.68,0-1.61.07v5a14.71,14.71,0,0,1-.07,1.72l4.21-.07a3.36,3.36,0,0,0,2.35-.78,3.47,3.47,0,0,0,.82-2.63h.75l-.13,4.29H655.07Z" transform="translate(0 0.36)"/><path class="cls-2" d="M671.26,439.59h0l.06,9.42c0,1,0,1.71,0,2.18l1.58-.08v1h-4v-.72a1.22,1.22,0,0,0,1.17-.51,2.49,2.49,0,0,0,.29-1.23l0-12.07-1.48.09v-1h2.62l9.38,12.55h0l0-10.08q0-.93.06-1.59l-1.58.09v-1h4v.73a1.77,1.77,0,0,0-1,.25,1,1,0,0,0-.41.63,5,5,0,0,0-.08,1.06v.76l0,12.34h-1.06Z" transform="translate(0 0.36)"/><path class="cls-2" d="M688.62,452.14a5.86,5.86,0,0,1-1.84-.84l.11.95h-1.14l-.14-4.69h.86a4,4,0,0,0,1.3,2.92,4.47,4.47,0,0,0,3,1,3.51,3.51,0,0,0,2.26-.74,2.46,2.46,0,0,0,.91-2,2.56,2.56,0,0,0-.52-1.62,4.33,4.33,0,0,0-1.28-1.12c-.5-.3-1.19-.65-2-1.05s-1.77-.88-2.35-1.23a5.08,5.08,0,0,1-1.49-1.4,3.64,3.64,0,0,1-.61-2.15,4.07,4.07,0,0,1,.41-1.76,3.56,3.56,0,0,1,1.4-1.5,5.06,5.06,0,0,1,2.66-.61,8,8,0,0,1,2,.25,5.28,5.28,0,0,1,1.84.87l-.09-.95H695v4.85h-.79a4.91,4.91,0,0,0-1.11-2.94,3.46,3.46,0,0,0-2.81-1.2,2.79,2.79,0,0,0-2.07.74,2.46,2.46,0,0,0-.75,1.83,2.39,2.39,0,0,0,.51,1.53,4.45,4.45,0,0,0,1.23,1c.49.28,1.17.62,2,1a22.77,22.77,0,0,1,2.41,1.23,5.19,5.19,0,0,1,1.55,1.44,3.66,3.66,0,0,1,.64,2.19,4,4,0,0,1-.6,2.18,4.1,4.1,0,0,1-1.78,1.48,6.68,6.68,0,0,1-2.77.53A7.9,7.9,0,0,1,688.62,452.14Z" transform="translate(0 0.36)"/><path class="cls-2" d="M701.52,451.6a4.57,4.57,0,0,1-1.94-2.53,14.57,14.57,0,0,1-.58-4.51v-4.47c0-.93,0-1.79.09-2.55l-1.59.07v-.95h4.94v.73c-.65,0-1.06.17-1.24.5a2.74,2.74,0,0,0-.26,1.24v5.55a14,14,0,0,0,.34,3.31,4.4,4.4,0,0,0,1.34,2.29,4.22,4.22,0,0,0,2.88.89,3.91,3.91,0,0,0,3.4-1.57,7.55,7.55,0,0,0,1.15-4.29l.07-6.18a14.5,14.5,0,0,1,.07-1.59l-1.57.09v-1h4.1v.73a1.59,1.59,0,0,0-1.12.35,1.26,1.26,0,0,0-.38.78c0,.3,0,.83,0,1.57l0,5.11a9,9,0,0,1-1.42,5.21,5.09,5.09,0,0,1-4.5,2A7.05,7.05,0,0,1,701.52,451.6Z" transform="translate(0 0.36)"/><path class="cls-2" d="M714.59,451.35a1.62,1.62,0,0,0,1.1-.35,1.28,1.28,0,0,0,.38-.79c0-.3,0-.82,0-1.57v-9.51q0-.93.06-1.59l-1.58.09v-1c1.53,0,2.68,0,3.46,0s1.23,0,1.58,0a8.4,8.4,0,0,1,4.55,1,3.32,3.32,0,0,1,1.44,2.9,4.23,4.23,0,0,1-.9,2.73A5.13,5.13,0,0,1,721.5,445a3.75,3.75,0,0,1,.69.69c.2.26.48.67.83,1.23l1.5,2.36c.32.51.59.9.8,1.17a2.7,2.7,0,0,0,.77.66,2.29,2.29,0,0,0,1.12.26v.72h-2.78a6.48,6.48,0,0,1-1-1c-.27-.36-.59-.83-1-1.4L721,447.27l-.29-.46a11.32,11.32,0,0,0-.62-1,3.66,3.66,0,0,0-.57-.66,4.91,4.91,0,0,1-.61,0c-.4,0-.69,0-.89,0v4.27q0,1.17-.06,1.74l1.58-.08v1h-4.95Zm8.9-10.53a3.17,3.17,0,0,0-1-2.51,4.53,4.53,0,0,0-3-.83,1.63,1.63,0,0,0-1.1.3,1.17,1.17,0,0,0-.37.75c0,.3-.05.82-.05,1.56v4.23c.45,0,.77.05,1,.05C722,444.37,723.49,443.18,723.49,440.82Z" transform="translate(0 0.36)"/><path class="cls-2" d="M728.42,451.35a1.62,1.62,0,0,0,1.1-.35,1.27,1.27,0,0,0,.37-.79c0-.3.05-.82.05-1.57v-9.51q0-.93.06-1.59l-1.58.09v-1h5v.73a1.57,1.57,0,0,0-1.1.35,1.24,1.24,0,0,0-.37.78c0,.3,0,.83,0,1.57v9.36q0,1.17-.06,1.74l1.58-.08v1h-5Z" transform="translate(0 0.36)"/><path class="cls-2" d="M738.28,439.59h0l.07,9.42c0,1,0,1.71-.05,2.18l1.59-.08v1h-4v-.72a1.2,1.2,0,0,0,1.16-.51,2.38,2.38,0,0,0,.29-1.23l0-12.07-1.47.09v-1h2.62l9.38,12.55h0l0-10.08a14.5,14.5,0,0,1,.07-1.59l-1.59.09v-1h4.06v.73a1.75,1.75,0,0,0-1,.25,1,1,0,0,0-.41.63,4.9,4.9,0,0,0-.09,1.06v.76l0,12.34h-1.06Z" transform="translate(0 0.36)"/><path class="cls-2" d="M755.87,451.49a6.72,6.72,0,0,1-2.64-2.67,8.55,8.55,0,0,1-.94-4.12,9.77,9.77,0,0,1,.87-4.08,7.55,7.55,0,0,1,2.6-3.11,7.23,7.23,0,0,1,4.19-1.2,9.62,9.62,0,0,1,2.41.32,7.76,7.76,0,0,1,2.15.89l-.09-1.06h1.21v5h-.79a4.49,4.49,0,0,0-1.47-3.17,4.79,4.79,0,0,0-3.27-1.14,4.87,4.87,0,0,0-2.85.9,6.19,6.19,0,0,0-2,2.5,8.2,8.2,0,0,0-.77,3.6,8.77,8.77,0,0,0,.75,3.7,6,6,0,0,0,2.1,2.55,5.21,5.21,0,0,0,3.05.93,7.14,7.14,0,0,0,2-.28,6.2,6.2,0,0,0,1.81-.82v-4.82l-1.54.08v-1h5v.73a1.21,1.21,0,0,0-1.32.8,5.75,5.75,0,0,0-.27,1.82v3.37h-.59a6.87,6.87,0,0,0-2.38.57,7.31,7.31,0,0,1-1.56.42,10.3,10.3,0,0,1-1.66.16A8,8,0,0,1,755.87,451.49Z" transform="translate(0 0.36)"/><path class="cls-2" d="M778.43,451.39a7.29,7.29,0,0,1-2.66-2.82,8.23,8.23,0,0,1-1-4,9.57,9.57,0,0,1,.87-4.05,7.38,7.38,0,0,1,2.6-3.07,7.18,7.18,0,0,1,4.17-1.18,7.92,7.92,0,0,1,4.45,1.34l-.11-1.19H788v5.11h-.79a4.94,4.94,0,0,0-1.45-3.2,4.37,4.37,0,0,0-3.13-1.16,5,5,0,0,0-2.86.87,6,6,0,0,0-2,2.48,8.7,8.7,0,0,0-.75,3.72,8,8,0,0,0,.79,3.62,6.3,6.3,0,0,0,2.14,2.49,5.29,5.29,0,0,0,3,.89,6.46,6.46,0,0,0,2.84-.66,5.93,5.93,0,0,0,2.25-1.87l.57.46a7.15,7.15,0,0,1-2.93,2.5,8.19,8.19,0,0,1-3.3.72A7.33,7.33,0,0,1,778.43,451.39Z" transform="translate(0 0.36)"/><path class="cls-2" d="M793.64,451.26a7.05,7.05,0,0,1-2.6-3,9.21,9.21,0,0,1-.84-3.88,8.84,8.84,0,0,1,.87-3.81,7.65,7.65,0,0,1,2.6-3.05,7.17,7.17,0,0,1,4.2-1.2,7.4,7.4,0,0,1,7,4.25,8.71,8.71,0,0,1,.88,3.81,9,9,0,0,1-.86,3.79,7.78,7.78,0,0,1-2.6,3.07,7.19,7.19,0,0,1-4.2,1.2A7.77,7.77,0,0,1,793.64,451.26Zm7.39-.72a6.14,6.14,0,0,0,1.85-2.52,8.63,8.63,0,0,0,.62-3.23,9.83,9.83,0,0,0-.68-3.63,7.2,7.2,0,0,0-2-2.86,4.82,4.82,0,0,0-6-.13,6.07,6.07,0,0,0-1.86,2.54,8.64,8.64,0,0,0-.63,3.26,10,10,0,0,0,.64,3.49,7,7,0,0,0,1.94,2.91,4.89,4.89,0,0,0,6.09.17Z" transform="translate(0 0.36)"/><path class="cls-2" d="M814.84,449.54c-1.11-2.48-2-4.43-2.6-5.87s-1.22-2.94-1.8-4.52l0,1q-.21,6.45-.25,9.2a3,3,0,0,1,0,.48,12,12,0,0,1-.07,1.39l1.66-.08v1h-4.21v-.72c.62,0,1-.19,1.2-.52a3.58,3.58,0,0,0,.32-1.51l.48-11.78-1.58.07v-.95h3.37l3,6.91c1.09,2.56,1.93,4.49,2.51,5.82h0l1.12-2.84q.84-2.12,1.91-4.65c.84-2,1.56-3.71,2.16-5.24h3.26v.73a1.32,1.32,0,0,0-1.16.43,2.41,2.41,0,0,0-.38,1.53l0,.44.58,10c0,.34,0,.8,0,1.37l1.61-.06v1H821.1v-.72a1.32,1.32,0,0,0,1.16-.5,2.74,2.74,0,0,0,.31-1.48c0-.28,0-.5,0-.64l-.58-9.38a1.45,1.45,0,0,1-.12.28c-.05.12-.1.26-.16.42l-5,12.24h-.67Z" transform="translate(0 0.36)"/><path class="cls-2" d="M828,451.35a1.62,1.62,0,0,0,1.1-.35,1.27,1.27,0,0,0,.37-.79c0-.3,0-.82,0-1.57v-9.51c0-.62,0-1.15.07-1.59l-1.58.09v-1c2,0,3.69,0,4.91,0a8.87,8.87,0,0,1,5,1.14,3.8,3.8,0,0,1,1.69,3.37,4.87,4.87,0,0,1-.67,2.44,5,5,0,0,1-2.32,1.94,10.21,10.21,0,0,1-4.35.77l-.79,0v3.19a14.87,14.87,0,0,1-.07,1.74l2-.11v1H828Zm7.16-6.42a3.82,3.82,0,0,0,2.26-3.62,3.42,3.42,0,0,0-1.21-2.91,5.38,5.38,0,0,0-3.35-.92,1.44,1.44,0,0,0-1,.3,1.28,1.28,0,0,0-.35.74c0,.29,0,.81,0,1.57v5.27a13.84,13.84,0,0,0,1.43.06A5.27,5.27,0,0,0,835.15,444.93Z" transform="translate(0 0.36)"/><path class="cls-2" d="M841.22,451.35a1.6,1.6,0,0,0,1.1-.35,1.28,1.28,0,0,0,.38-.79c0-.3,0-.82,0-1.57v-9.51a14.5,14.5,0,0,1,.07-1.59l-1.59.09v-1h5v.73a1.6,1.6,0,0,0-1.11.35,1.24,1.24,0,0,0-.37.78c0,.3,0,.83,0,1.57v9.45c0,.76,0,1.34-.07,1.72l4.12-.07a2.59,2.59,0,0,0,2.11-.89,4.41,4.41,0,0,0,.71-2.78h.75l-.14,4.55H841.22Z" transform="translate(0 0.36)"/><path class="cls-2" d="M854,451.35a1.62,1.62,0,0,0,1.1-.35,1.34,1.34,0,0,0,.38-.79c0-.3,0-.82,0-1.57v-9.51a14.5,14.5,0,0,1,.07-1.59l-1.59.09v-1h4.95v.73a1.57,1.57,0,0,0-1.1.35,1.24,1.24,0,0,0-.37.78c0,.3,0,.83,0,1.57v9.36c0,.78,0,1.36-.07,1.74l1.58-.08v1H854Z" transform="translate(0 0.36)"/><path class="cls-2" d="M860,451.35a1.4,1.4,0,0,0,.88-.26,2,2,0,0,0,.54-.66,9.44,9.44,0,0,0,.5-1.22l.22-.62,4.53-12.35h.53l4.91,12.53a10.84,10.84,0,0,1,.42,1.29,4,4,0,0,1,.15,1.13l1.5-.08v1h-5v-.72c.86,0,1.3-.37,1.3-1.06a3.35,3.35,0,0,0-.22-1l-.77-2.07-5.73.13c-.22.6-.48,1.39-.77,2.35-.15.49-.33,1-.55,1.52l1.72-.08v1H860Zm9.14-5-1.57-4.21-1-2.7h0l-.93,2.48-1.18,3.35-.38,1.08Z" transform="translate(0 0.36)"/><path class="cls-2" d="M877.6,439.59h0l.07,9.42c0,1,0,1.71,0,2.18l1.58-.08v1h-4v-.72a1.22,1.22,0,0,0,1.17-.51,2.49,2.49,0,0,0,.28-1.23l0-12.07-1.48.09v-1h2.62l9.38,12.55h0l0-10.08q0-.93.06-1.59l-1.58.09v-1h4.05v.73a1.77,1.77,0,0,0-1,.25,1,1,0,0,0-.41.63,4.9,4.9,0,0,0-.09,1.06v.76l0,12.34h-1.06Z" transform="translate(0 0.36)"/><path class="cls-2" d="M895.2,451.39a7.24,7.24,0,0,1-2.67-2.82,8.33,8.33,0,0,1-.95-4,9.57,9.57,0,0,1,.87-4.05,7.36,7.36,0,0,1,2.59-3.07,7.24,7.24,0,0,1,4.18-1.18,7.94,7.94,0,0,1,4.45,1.34l-.11-1.19h1.18v5.11H904a5,5,0,0,0-1.44-3.2,4.38,4.38,0,0,0-3.14-1.16,5,5,0,0,0-2.85.87,5.94,5.94,0,0,0-2,2.48,8.7,8.7,0,0,0-.74,3.72,8,8,0,0,0,.79,3.62,6.35,6.35,0,0,0,2.13,2.49,5.32,5.32,0,0,0,3,.89,6.46,6.46,0,0,0,2.84-.66,5.89,5.89,0,0,0,2.24-1.87l.58.46a7.22,7.22,0,0,1-2.93,2.5,8.2,8.2,0,0,1-3.31.72A7.29,7.29,0,0,1,895.2,451.39Z" transform="translate(0 0.36)"/><path class="cls-2" d="M907.17,451.35a1.62,1.62,0,0,0,1.1-.35,1.27,1.27,0,0,0,.37-.79c0-.3,0-.82,0-1.57v-9.51c0-.62,0-1.15.07-1.59l-1.58.09v-1h10.59l.11,3.85h-.73a2.56,2.56,0,0,0-3-3.08l-1.9.05a2,2,0,0,0-1.14.29,1.25,1.25,0,0,0-.44.77,9.59,9.59,0,0,0-.09,1.55v3.53l4.14,0-.15-1.89h1v4.62h-.73a3.07,3.07,0,0,0-.2-1.24,1,1,0,0,0-.6-.58,3.78,3.78,0,0,0-1.14-.14l-.68,0-1.61.07v5a14.71,14.71,0,0,1-.07,1.72l4.21-.07a3.39,3.39,0,0,0,2.36-.78,3.51,3.51,0,0,0,.81-2.63h.75l-.13,4.29H907.17Z" transform="translate(0 0.36)"/></g></svg>